<mxfile host="app.diagrams.net" modified="2022-08-03T10:16:28.137Z" agent="5.0 (Macintosh; Intel Mac OS X 10_15_7) AppleWebKit/537.36 (KHTML, like Gecko) Chrome/103.0.0.0 Safari/537.36" etag="Pmpi8rfGi1Y_6dxvQqbr" version="20.2.2" type="github">
  <diagram id="xqIq550Y2_NK9ctVjaXc" name="第 1 页">
    <mxGraphModel dx="1018" dy="634" grid="1" gridSize="10" guides="1" tooltips="1" connect="1" arrows="1" fold="1" page="1" pageScale="1" pageWidth="827" pageHeight="1169" math="0" shadow="0">
      <root>
        <mxCell id="0" />
        <mxCell id="1" parent="0" />
        <mxCell id="tjWM_aqnWc_oJIk-xfWc-2" value="" style="sketch=0;outlineConnect=0;fontColor=#232F3E;gradientColor=none;fillColor=#3F8624;strokeColor=none;dashed=0;verticalLabelPosition=bottom;verticalAlign=top;align=center;html=1;fontSize=12;fontStyle=0;aspect=fixed;pointerEvents=1;shape=mxgraph.aws4.file_system;" vertex="1" parent="1">
          <mxGeometry x="440" y="203.5" width="78" height="73" as="geometry" />
        </mxCell>
        <mxCell id="tjWM_aqnWc_oJIk-xfWc-4" value="1.upload" style="text;html=1;align=center;verticalAlign=middle;resizable=0;points=[];autosize=1;strokeColor=none;fillColor=none;" vertex="1" parent="1">
          <mxGeometry x="285" y="215" width="70" height="30" as="geometry" />
        </mxCell>
        <mxCell id="tjWM_aqnWc_oJIk-xfWc-6" value="OCR" style="rounded=1;whiteSpace=wrap;html=1;fillColor=#fff2cc;strokeColor=#d6b656;" vertex="1" parent="1">
          <mxGeometry x="419" y="585" width="120" height="60" as="geometry" />
        </mxCell>
        <mxCell id="tjWM_aqnWc_oJIk-xfWc-7" value="" style="endArrow=classic;html=1;rounded=0;entryX=0.5;entryY=0;entryDx=0;entryDy=0;exitX=0.5;exitY=0;exitDx=0;exitDy=0;" edge="1" parent="1" source="tjWM_aqnWc_oJIk-xfWc-6">
          <mxGeometry width="50" height="50" relative="1" as="geometry">
            <mxPoint x="430" y="390" as="sourcePoint" />
            <mxPoint x="479" y="270" as="targetPoint" />
          </mxGeometry>
        </mxCell>
        <mxCell id="tjWM_aqnWc_oJIk-xfWc-16" value="2.pull file" style="edgeLabel;html=1;align=center;verticalAlign=middle;resizable=0;points=[];" vertex="1" connectable="0" parent="tjWM_aqnWc_oJIk-xfWc-7">
          <mxGeometry x="0.0407" y="-1" relative="1" as="geometry">
            <mxPoint as="offset" />
          </mxGeometry>
        </mxCell>
        <mxCell id="tjWM_aqnWc_oJIk-xfWc-8" value="" style="ellipse;whiteSpace=wrap;html=1;fillColor=#e1d5e7;strokeColor=#9673a6;" vertex="1" parent="1">
          <mxGeometry x="50" y="180" width="200" height="160" as="geometry" />
        </mxCell>
        <mxCell id="tjWM_aqnWc_oJIk-xfWc-9" value="文档" style="strokeWidth=2;html=1;shape=mxgraph.flowchart.document2;whiteSpace=wrap;size=0.25;" vertex="1" parent="1">
          <mxGeometry x="100" y="230" width="100" height="60" as="geometry" />
        </mxCell>
        <mxCell id="tjWM_aqnWc_oJIk-xfWc-10" value="" style="endArrow=classic;html=1;rounded=0;exitX=1;exitY=0.25;exitDx=0;exitDy=0;exitPerimeter=0;" edge="1" parent="1" source="tjWM_aqnWc_oJIk-xfWc-9" target="tjWM_aqnWc_oJIk-xfWc-2">
          <mxGeometry width="50" height="50" relative="1" as="geometry">
            <mxPoint x="390" y="380" as="sourcePoint" />
            <mxPoint x="440" y="330" as="targetPoint" />
          </mxGeometry>
        </mxCell>
        <mxCell id="tjWM_aqnWc_oJIk-xfWc-11" value="合规平台" style="text;html=1;strokeColor=none;fillColor=none;align=center;verticalAlign=middle;whiteSpace=wrap;rounded=0;" vertex="1" parent="1">
          <mxGeometry x="120" y="185" width="60" height="30" as="geometry" />
        </mxCell>
        <mxCell id="tjWM_aqnWc_oJIk-xfWc-12" value="" style="endArrow=classic;html=1;rounded=0;exitX=0;exitY=0;exitDx=0;exitDy=0;" edge="1" parent="1" source="tjWM_aqnWc_oJIk-xfWc-6">
          <mxGeometry width="50" height="50" relative="1" as="geometry">
            <mxPoint x="110" y="390" as="sourcePoint" />
            <mxPoint x="160" y="340" as="targetPoint" />
            <Array as="points">
              <mxPoint x="150" y="585" />
            </Array>
          </mxGeometry>
        </mxCell>
        <mxCell id="tjWM_aqnWc_oJIk-xfWc-14" value="NLP" style="ellipse;whiteSpace=wrap;html=1;fillColor=#dae8fc;strokeColor=#6c8ebf;" vertex="1" parent="1">
          <mxGeometry x="230" y="430" width="120" height="80" as="geometry" />
        </mxCell>
        <mxCell id="tjWM_aqnWc_oJIk-xfWc-17" value="4-2.notify" style="text;html=1;strokeColor=none;fillColor=none;align=center;verticalAlign=middle;whiteSpace=wrap;rounded=0;" vertex="1" parent="1">
          <mxGeometry x="180" y="555" width="60" height="30" as="geometry" />
        </mxCell>
        <mxCell id="tjWM_aqnWc_oJIk-xfWc-18" value="4-1.notify" style="text;html=1;strokeColor=none;fillColor=none;align=center;verticalAlign=middle;whiteSpace=wrap;rounded=0;" vertex="1" parent="1">
          <mxGeometry x="354" y="510" width="60" height="30" as="geometry" />
        </mxCell>
        <mxCell id="tjWM_aqnWc_oJIk-xfWc-20" value="" style="endArrow=classic;html=1;rounded=0;entryX=1;entryY=1;entryDx=0;entryDy=0;" edge="1" parent="1" target="tjWM_aqnWc_oJIk-xfWc-14">
          <mxGeometry width="50" height="50" relative="1" as="geometry">
            <mxPoint x="420" y="580" as="sourcePoint" />
            <mxPoint x="440" y="330" as="targetPoint" />
          </mxGeometry>
        </mxCell>
        <mxCell id="tjWM_aqnWc_oJIk-xfWc-21" value="" style="endArrow=classic;html=1;rounded=0;entryX=0;entryY=0;entryDx=0;entryDy=0;exitX=0.733;exitY=0.025;exitDx=0;exitDy=0;exitPerimeter=0;" edge="1" parent="1" source="tjWM_aqnWc_oJIk-xfWc-14">
          <mxGeometry width="50" height="50" relative="1" as="geometry">
            <mxPoint x="310" y="440" as="sourcePoint" />
            <mxPoint x="449" y="270" as="targetPoint" />
          </mxGeometry>
        </mxCell>
        <mxCell id="tjWM_aqnWc_oJIk-xfWc-22" value="5.pull txt" style="text;html=1;align=center;verticalAlign=middle;resizable=0;points=[];autosize=1;strokeColor=none;fillColor=none;" vertex="1" parent="1">
          <mxGeometry x="305" y="355" width="70" height="30" as="geometry" />
        </mxCell>
        <mxCell id="tjWM_aqnWc_oJIk-xfWc-23" value="" style="endArrow=classic;html=1;rounded=0;exitX=0;exitY=0;exitDx=0;exitDy=0;entryX=0.75;entryY=0.938;entryDx=0;entryDy=0;entryPerimeter=0;" edge="1" parent="1" source="tjWM_aqnWc_oJIk-xfWc-14" target="tjWM_aqnWc_oJIk-xfWc-8">
          <mxGeometry width="50" height="50" relative="1" as="geometry">
            <mxPoint x="200" y="380" as="sourcePoint" />
            <mxPoint x="250" y="330" as="targetPoint" />
          </mxGeometry>
        </mxCell>
        <mxCell id="tjWM_aqnWc_oJIk-xfWc-24" value="6.send data" style="edgeLabel;html=1;align=center;verticalAlign=middle;resizable=0;points=[];" vertex="1" connectable="0" parent="tjWM_aqnWc_oJIk-xfWc-23">
          <mxGeometry x="0.22" y="-2" relative="1" as="geometry">
            <mxPoint as="offset" />
          </mxGeometry>
        </mxCell>
        <mxCell id="tjWM_aqnWc_oJIk-xfWc-25" value="" style="endArrow=classic;html=1;rounded=0;exitX=0.95;exitY=0;exitDx=0;exitDy=0;exitPerimeter=0;" edge="1" parent="1" source="tjWM_aqnWc_oJIk-xfWc-6" target="tjWM_aqnWc_oJIk-xfWc-2">
          <mxGeometry width="50" height="50" relative="1" as="geometry">
            <mxPoint x="530" y="580" as="sourcePoint" />
            <mxPoint x="560" y="280" as="targetPoint" />
            <Array as="points">
              <mxPoint x="500" y="290" />
            </Array>
          </mxGeometry>
        </mxCell>
        <mxCell id="tjWM_aqnWc_oJIk-xfWc-26" value="3.push txt" style="edgeLabel;html=1;align=center;verticalAlign=middle;resizable=0;points=[];" vertex="1" connectable="0" parent="tjWM_aqnWc_oJIk-xfWc-25">
          <mxGeometry x="-0.3071" y="-1" relative="1" as="geometry">
            <mxPoint as="offset" />
          </mxGeometry>
        </mxCell>
        <mxCell id="tjWM_aqnWc_oJIk-xfWc-27" value="GTP" style="text;html=1;strokeColor=none;fillColor=none;align=center;verticalAlign=middle;whiteSpace=wrap;rounded=0;" vertex="1" parent="1">
          <mxGeometry x="449" y="245" width="60" height="30" as="geometry" />
        </mxCell>
      </root>
    </mxGraphModel>
  </diagram>
</mxfile>
